{
  "accessors": [
    {
      "bufferView": 2,
      "componentType": 5126,
      "count": 94,
      "max": [
        11.448655128479004,
        11.226688385009766,
        2.1605908870697021
      ],
      "min": [
        -9.9385223388671875,
        -11.226688385009766,
        0
      ],
      "type": "VEC3"
    },
    {
      "bufferView": 2,
      "byteOffset": 1128,
      "componentType": 5126,
      "count": 94,
      "max": [
        1,
        1,
        1
      ],
      "min": [
        -1,
        -1,
        -1
      ],
      "type": "VEC3"
    },
    {
      "bufferView": 1,
      "componentType": 5126,
      "count": 94,
      "max": [
        0.08269190788269043,
        0.45858609676361084
      ],
      "min": [
        0.032691925764083862,
        0.40858608484268188
      ],
      "type": "VEC2"
    },
    {
      "bufferView": 0,
      "componentType": 5125,
      "count": 144,
      "max": [
        93
      ],
      "min": [
        0
      ],
      "type": "SCALAR"
    },
    {
      "bufferView": 2,
      "byteOffset": 2256,
      "componentType": 5126,
      "count": 1366,
      "max": [
        10.017499923706055,
        3.2600002288818359,
        0.5
      ],
      "min": [
        -10.017499923706055,
        -0.055000003427267075,
        0
      ],
      "type": "VEC3"
    },
    {
      "bufferView": 2,
      "byteOffset": 18648,
      "componentType": 5126,
      "count": 1366,
      "max": [
        1,
        1,
        1
      ],
      "min": [
        -1,
        -1,
        -1
      ],
      "type": "VEC3"
    },
    {
      "bufferView": 1,
      "byteOffset": 752,
      "componentType": 5126,
      "count": 1366,
      "max": [
        0.08269190788269043,
        0.48275655508041382
      ],
      "min": [
        0.032691925764083862,
        0.43275654315948486
      ],
      "type": "VEC2"
    },
    {
      "bufferView": 0,
      "byteOffset": 576,
      "componentType": 5125,
      "count": 3732,
      "max": [
        1365
      ],
      "min": [
        0
      ],
      "type": "SCALAR"
    },
    {
      "bufferView": 2,
      "byteOffset": 35040,
      "componentType": 5126,
      "count": 32,
      "max": [
        50,
        1,
        20
      ],
      "min": [
        -50,
        -1,
        0
      ],
      "type": "VEC3"
    },
    {
      "bufferView": 2,
      "byteOffset": 35424,
      "componentType": 5126,
      "count": 32,
      "max": [
        1,
        1,
        1
      ],
      "min": [
        -1,
        -1,
        -1
      ],
      "type": "VEC3"
    },
    {
      "bufferView": 1,
      "byteOffset": 11680,
      "componentType": 5126,
      "count": 32,
      "max": [
        0.94992059469223022,
        0.65456068515777588
      ],
      "min": [
        0.023330897092819214,
        0.26549750566482544
      ],
      "type": "VEC2"
    },
    {
      "bufferView": 0,
      "byteOffset": 15504,
      "componentType": 5125,
      "count": 72,
      "max": [
        31
      ],
      "min": [
        0
      ],
      "type": "SCALAR"
    },
    {
      "bufferView": 2,
      "byteOffset": 35808,
      "componentType": 5126,
      "count": 32,
      "max": [
        50,
        1,
        20
      ],
      "min": [
        -50,
        -1,
        0
      ],
      "type": "VEC3"
    },
    {
      "bufferView": 2,
      "byteOffset": 36192,
      "componentType": 5126,
      "count": 32,
      "max": [
        1,
        1,
        1
      ],
      "min": [
        -1,
        -1,
        -1
      ],
      "type": "VEC3"
    },
    {
      "bufferView": 1,
      "byteOffset": 11936,
      "componentType": 5126,
      "count": 32,
      "max": [
        0.94992059469223022,
        0.98547065258026123
      ],
      "min": [
        0.023330897092819214,
        0.39184221625328064
      ],
      "type": "VEC2"
    },
    {
      "bufferView": 0,
      "byteOffset": 15792,
      "componentType": 5125,
      "count": 72,
      "max": [
        31
      ],
      "min": [
        0
      ],
      "type": "SCALAR"
    },
    {
      "bufferView": 2,
      "byteOffset": 36576,
      "componentType": 5126,
      "count": 32,
      "max": [
        50,
        1,
        20
      ],
      "min": [
        -50,
        -1,
        0
      ],
      "type": "VEC3"
    },
    {
      "bufferView": 2,
      "byteOffset": 36960,
      "componentType": 5126,
      "count": 32,
      "max": [
        1,
        1,
        1
      ],
      "min": [
        -1,
        -1,
        -1
      ],
      "type": "VEC3"
    },
    {
      "bufferView": 1,
      "byteOffset": 12192,
      "componentType": 5126,
      "count": 32,
      "max": [
        0.94992059469223022,
        0.76288950443267822
      ],
      "min": [
        0.023330897092819214,
        0.13970676064491272
      ],
      "type": "VEC2"
    },
    {
      "bufferView": 0,
      "byteOffset": 16080,
      "componentType": 5125,
      "count": 72,
      "max": [
        31
      ],
      "min": [
        0
      ],
      "type": "SCALAR"
    },
    {
      "bufferView": 2,
      "byteOffset": 37344,
      "componentType": 5126,
      "count": 32,
      "max": [
        50,
        1,
        20
      ],
      "min": [
        -50,
        -1,
        0
      ],
      "type": "VEC3"
    },
    {
      "bufferView": 2,
      "byteOffset": 37728,
      "componentType": 5126,
      "count": 32,
      "max": [
        1,
        1,
        1
      ],
      "min": [
        -1,
        -1,
        -1
      ],
      "type": "VEC3"
    },
    {
      "bufferView": 1,
      "byteOffset": 12448,
      "componentType": 5126,
      "count": 32,
      "max": [
        0.94992059469223022,
        0.87695080041885376
      ],
      "min": [
        0.023330897092819214,
        0.012438476085662842
      ],
      "type": "VEC2"
    },
    {
      "bufferView": 0,
      "byteOffset": 16368,
      "componentType": 5125,
      "count": 72,
      "max": [
        31
      ],
      "min": [
        0
      ],
      "type": "SCALAR"
    },
    {
      "bufferView": 3,
      "componentType": 5126,
      "count": 101,
      "max": [
        3.3333332538604736
      ],
      "min": [
        0
      ],
      "type": "SCALAR"
    },
    {
      "bufferView": 4,
      "componentType": 5126,
      "count": 101,
      "max": [
        0.14830970764160156,
        -0.039748076349496841,
        0.0027567290235310793
      ],
      "min": [
        0.14830970764160156,
        -0.078468091785907745,
        0.0027567290235310793
      ],
      "type": "VEC3"
    },
    {
      "bufferView": 3,
      "byteOffset": 404,
      "componentType": 5126,
      "count": 101,
      "max": [
        3.3333332538604736
      ],
      "min": [
        0
      ],
      "type": "SCALAR"
    },
    {
      "bufferView": 4,
      "byteOffset": 1212,
      "componentType": 5126,
      "count": 101,
      "max": [
        0.15005993843078613,
        0.78729534149169922,
        0.59441709518432617
      ],
      "min": [
        0.15005993843078613,
        0.70100545883178711,
        0.59441709518432617
      ],
      "type": "VEC3"
    },
    {
      "bufferView": 3,
      "byteOffset": 808,
      "componentType": 5126,
      "count": 101,
      "max": [
        3.3333332538604736
      ],
      "min": [
        0
      ],
      "type": "SCALAR"
    },
    {
      "bufferView": 4,
      "byteOffset": 2424,
      "componentType": 5126,
      "count": 101,
      "max": [
        0.15005998313426971,
        0.81216353178024292,
        -0.43736335635185242
      ],
      "min": [
        0.15005998313426971,
        0.78729534149169922,
        -0.43736335635185242
      ],
      "type": "VEC3"
    },
    {
      "bufferView": 3,
      "byteOffset": 1212,
      "componentType": 5126,
      "count": 101,
      "max": [
        3.3333332538604736
      ],
      "min": [
        0
      ],
      "type": "SCALAR"
    },
    {
      "bufferView": 4,
      "byteOffset": 3636,
      "componentType": 5126,
      "count": 101,
      "max": [
        0.15005993843078613,
        0.85605484247207642,
        0.258464515209198
      ],
      "min": [
        0.15005993843078613,
        0.78729534149169922,
        0.258464515209198
      ],
      "type": "VEC3"
    },
    {
      "bufferView": 3,
      "byteOffset": 1616,
      "componentType": 5126,
      "count": 101,
      "max": [
        3.3333332538604736
      ],
      "min": [
        0
      ],
      "type": "SCALAR"
    },
    {
      "bufferView": 4,
      "byteOffset": 4848,
      "componentType": 5126,
      "count": 101,
      "max": [
        0.15005996823310852,
        0.80800080299377441,
        -0.10141082853078842
      ],
      "min": [
        0.15005996823310852,
        0.78729534149169922,
        -0.10141082853078842
      ],
      "type": "VEC3"
    }
  ],
  "animations": [
    {
      "channels": [
        {
          "sampler": 0,
          "target": {
            "node": 5,
            "path": "translation"
          }
        },
        {
          "sampler": 1,
          "target": {
            "node": 9,
            "path": "translation"
          }
        },
        {
          "sampler": 2,
          "target": {
            "node": 12,
            "path": "translation"
          }
        },
        {
          "sampler": 3,
          "target": {
            "node": 15,
            "path": "translation"
          }
        },
        {
          "sampler": 4,
          "target": {
            "node": 18,
            "path": "translation"
          }
        }
      ],
      "name": "Take 001",
      "samplers": [
        {
          "input": 24,
          "interpolation": "LINEAR",
          "output": 25
        },
        {
          "input": 26,
          "interpolation": "LINEAR",
          "output": 27
        },
        {
          "input": 28,
          "interpolation": "LINEAR",
          "output": 29
        },
        {
          "input": 30,
          "interpolation": "LINEAR",
          "output": 31
        },
        {
          "input": 32,
          "interpolation": "LINEAR",
          "output": 33
        }
      ]
    }
  ],
  "asset": {
    "extras": {
      "author": "m4ur1c10 (https://sketchfab.com/m4ur1c10)",
      "license": "CC-BY-4.0 (http://creativecommons.org/licenses/by/4.0/)",
      "source": "https://sketchfab.com/3d-models/9-6cf56db57c2b4eff9f138ba161ca51e5",
      "title": "9"
    },
    "generator": "Sketchfab-10.35.0",
    "version": "2.0"
  },
  "bufferViews": [
    {
      "buffer": 0,
      "byteLength": 16656,
      "byteOffset": 0,
      "name": "floatBufferViews",
      "target": 34963
    },
    {
      "buffer": 0,
      "byteLength": 12704,
      "byteOffset": 16656,
      "byteStride": 8,
      "name": "floatBufferViews",
      "target": 34962
    },
    {
      "buffer": 0,
      "byteLength": 38112,
      "byteOffset": 29360,
      "byteStride": 12,
      "name": "floatBufferViews",
      "target": 34962
    },
    {
      "buffer": 0,
      "byteLength": 2020,
      "byteOffset": 67472,
      "name": "floatBufferViews"
    },
    {
      "buffer": 0,
      "byteLength": 6060,
      "byteOffset": 69492,
      "byteStride": 12,
      "name": "floatBufferViews"
    }
  ],
  "buffers": [
    {
      "byteLength": 75552,
      "uri": "scene.bin"
    }
  ],
  "images": [
    {
      "uri": "textures/Totem_baseColor.jpeg"
    }
  ],
  "materials": [
    {
      "doubleSided": true,
      "name": "Totem",
      "pbrMetallicRoughness": {
        "baseColorFactor": [
          1,
          1,
          1,
          1
        ],
        "baseColorTexture": {
          "index": 0,
          "texCoord": 0
        },
        "metallicFactor": 0,
        "roughnessFactor": 0
      }
    }
  ],
  "meshes": [
    {
      "name": "Box231_Totem_0",
      "primitives": [
        {
          "attributes": {
            "NORMAL": 1,
            "POSITION": 0,
            "TEXCOORD_0": 2
          },
          "indices": 3,
          "material": 0,
          "mode": 4
        }
      ]
    },
    {
      "name": "Text001_Totem_0",
      "primitives": [
        {
          "attributes": {
            "NORMAL": 5,
            "POSITION": 4,
            "TEXCOORD_0": 6
          },
          "indices": 7,
          "material": 0,
          "mode": 4
        }
      ]
    },
    {
      "name": "Aulas004_Totem_0",
      "primitives": [
        {
          "attributes": {
            "NORMAL": 9,
            "POSITION": 8,
            "TEXCOORD_0": 10
          },
          "indices": 11,
          "material": 0,
          "mode": 4
        }
      ]
    },
    {
      "name": "Aulas_Totem_0",
      "primitives": [
        {
          "attributes": {
            "NORMAL": 13,
            "POSITION": 12,
            "TEXCOORD_0": 14
          },
          "indices": 15,
          "material": 0,
          "mode": 4
        }
      ]
    },
    {
      "name": "Aulas003_Totem_0",
      "primitives": [
        {
          "attributes": {
            "NORMAL": 17,
            "POSITION": 16,
            "TEXCOORD_0": 18
          },
          "indices": 19,
          "material": 0,
          "mode": 4
        }
      ]
    },
    {
      "name": "Aulas002_Totem_0",
      "primitives": [
        {
          "attributes": {
            "NORMAL": 21,
            "POSITION": 20,
            "TEXCOORD_0": 22
          },
          "indices": 23,
          "material": 0,
          "mode": 4
        }
      ]
    }
  ],
  "nodes": [
    {
      "children": [
        1
      ],
      "name": "RootNode (gltf orientation matrix)",
      "rotation": [
        -0.70710678118654746,
        -0,
        -0,
        0.70710678118654757
      ]
    },
    {
      "children": [
        2
      ],
      "matrix": [
        1.1858549118041992,
        0,
        0,
        0,
        0,
        1.1858549118041992,
        0,
        0,
        0,
        0,
        1.1858549118041992,
        0,
        0,
        0,
        0,
        1
      ],
      "name": "RootNode (model correction matrix)"
    },
    {
      "children": [
        3
      ],
      "matrix": [
        1,
        0,
        0,
        0,
        0,
        0,
        1,
        0,
        0,
        -1,
        0,
        0,
        0,
        0,
        0,
        1
      ],
      "name": "bb41384ef3ec439f8c35fcb3cdee822e.fbx"
    },
    {
      "children": [
        4
      ],
      "name": ""
    },
    {
      "children": [
        5,
        7,
        9,
        12,
        15,
        18
      ],
      "name": "RootNode"
    },
    {
      "children": [
        6
      ],
      "name": "Box231",
      "rotation": [
        0.7071068286895752,
        0.7071068286895752,
        1.5454311608209537e-08,
        1.5454311608209537e-08
      ],
      "scale": [
        0.0057626902125775814,
        0.0057626902125775814,
        0.0057626902125775814
      ],
      "translation": [
        0.14830972254276276,
        -0.078468091785907745,
        0.0027567290235310793
      ]
    },
    {
      "mesh": 0,
      "name": "Box231_Totem_0"
    },
    {
      "children": [
        8
      ],
      "name": "Text001",
      "rotation": [
        -0.7071068286895752,
        -0,
        0,
        0.7071068286895752
      ],
      "scale": [
        0.0099999997764825821,
        0.0099999997764825821,
        0.0099999997764825821
      ],
      "translation": [
        0.13997980952262878,
        -0.13523243367671967,
        -0.031102770939469337
      ]
    },
    {
      "mesh": 1,
      "name": "Text001_Totem_0"
    },
    {
      "children": [
        10
      ],
      "name": "Dummy001",
      "rotation": [
        0.7071068286895752,
        0.70710670948028564,
        -2.1073422118433882e-08,
        -2.1073425671147561e-08
      ],
      "scale": [
        0.0099999997764825821,
        0.0099999997764825821,
        0.0099999997764825821
      ],
      "translation": [
        0.15005993843078613,
        0.78729540109634399,
        0.59441709518432617
      ]
    },
    {
      "children": [
        11
      ],
      "name": "Aulas004",
      "rotation": [
        2.439243553372045e-15,
        4.0782895757587954e-15,
        0.9537169337272644,
        -0.30070590972900391
      ],
      "scale": [
        1,
        9.0054998397827148,
        1
      ],
      "translation": [
        0,
        0,
        3.814697265625e-06
      ]
    },
    {
      "mesh": 2,
      "name": "Aulas004_Totem_0"
    },
    {
      "children": [
        13
      ],
      "name": "Dummy004",
      "rotation": [
        0.84339147806167603,
        0.5372997522354126,
        -2.9209333618496203e-08,
        1.4168088569022075e-07
      ],
      "scale": [
        0.0099999997764825821,
        0.0099999997764825821,
        0.0099999997764825821
      ],
      "translation": [
        0.15005998313426971,
        0.78729540109634399,
        -0.43736335635185242
      ]
    },
    {
      "children": [
        14
      ],
      "name": "Aulas",
      "rotation": [
        -1.1438775917953486e-14,
        -6.4144784420866723e-15,
        0.70710670948028564,
        0.7071068286895752
      ],
      "scale": [
        1,
        9.0054988861083984,
        1
      ],
      "translation": [
        1.4210854715202004e-14,
        -3.5527136788005009e-15,
        -1.52587890625e-05
      ]
    },
    {
      "mesh": 3,
      "name": "Aulas_Totem_0"
    },
    {
      "children": [
        16
      ],
      "name": "Dummy002",
      "rotation": [
        0.88701075315475464,
        0.46174874901771545,
        3.7614210413039473e-08,
        7.2256199246112374e-08
      ],
      "scale": [
        0.0099999997764825821,
        0.0099999997764825821,
        0.0099999997764825821
      ],
      "translation": [
        0.15005995333194733,
        0.78729540109634399,
        0.258464515209198
      ]
    },
    {
      "children": [
        17
      ],
      "name": "Aulas003",
      "rotation": [
        2.6653170705106914e-15,
        3.9342643285724104e-15,
        0.13052600622177124,
        0.99144488573074341
      ],
      "scale": [
        1,
        9.0055007934570312,
        1
      ]
    },
    {
      "mesh": 4,
      "name": "Aulas003_Totem_0"
    },
    {
      "children": [
        19
      ],
      "name": "Dummy003",
      "rotation": [
        0.64278757572174072,
        0.7660444974899292,
        -1.4962373029447917e-07,
        -7.1504061338600877e-08
      ],
      "scale": [
        0.0099999997764825821,
        0.0099999997764825821,
        0.0099999997764825821
      ],
      "translation": [
        0.15005996823310852,
        0.78729540109634399,
        -0.10141082853078842
      ]
    },
    {
      "children": [
        20
      ],
      "name": "Aulas002",
      "rotation": [
        7.1054282046339491e-15,
        7.1010871607792708e-15,
        1,
        7.4505805969238281e-08
      ],
      "scale": [
        1,
        9.0054998397827148,
        1
      ],
      "translation": [
        -1.4210854715202004e-14,
        -3.5527136788005009e-15,
        7.62939453125e-06
      ]
    },
    {
      "mesh": 5,
      "name": "Aulas002_Totem_0"
    }
  ],
  "samplers": [
    {
      "magFilter": 9729,
      "minFilter": 9987,
      "wrapS": 10497,
      "wrapT": 10497
    }
  ],
  "scene": 0,
  "scenes": [
    {
      "name": "OSG_Scene",
      "nodes": [
        0
      ]
    }
  ],
  "textures": [
    {
      "sampler": 0,
      "source": 0
    }
  ]
}

