{
  "accessors": [
    {
      "bufferView": 2,
      "componentType": 5126,
      "count": 116,
      "max": [
        17.630844116210938,
        17.362993240356445,
        1.5970426797866821
      ],
      "min": [
        -17.630844116210938,
        -17.362993240356445,
        0
      ],
      "type": "VEC3"
    },
    {
      "bufferView": 2,
      "byteOffset": 1392,
      "componentType": 5126,
      "count": 116,
      "max": [
        1,
        0.98480784893035889,
        1
      ],
      "min": [
        -1,
        -0.98480790853500366,
        -1
      ],
      "type": "VEC3"
    },
    {
      "bufferView": 1,
      "componentType": 5126,
      "count": 116,
      "max": [
        0.081516921520233154,
        0.46174490451812744
      ],
      "min": [
        0.051516950130462646,
        0.43174493312835693
      ],
      "type": "VEC2"
    },
    {
      "bufferView": 0,
      "componentType": 5125,
      "count": 432,
      "max": [
        115
      ],
      "min": [
        0
      ],
      "type": "SCALAR"
    },
    {
      "bufferView": 2,
      "byteOffset": 2784,
      "componentType": 5126,
      "count": 32,
      "max": [
        50,
        1,
        20
      ],
      "min": [
        -50,
        -1,
        0
      ],
      "type": "VEC3"
    },
    {
      "bufferView": 2,
      "byteOffset": 3168,
      "componentType": 5126,
      "count": 32,
      "max": [
        1,
        1,
        1
      ],
      "min": [
        -1,
        -1,
        -1
      ],
      "type": "VEC3"
    },
    {
      "bufferView": 1,
      "byteOffset": 928,
      "componentType": 5126,
      "count": 32,
      "max": [
        0.94992059469223022,
        0.87695080041885376
      ],
      "min": [
        0.023330897092819214,
        0.012438476085662842
      ],
      "type": "VEC2"
    },
    {
      "bufferView": 0,
      "byteOffset": 1728,
      "componentType": 5125,
      "count": 72,
      "max": [
        31
      ],
      "min": [
        0
      ],
      "type": "SCALAR"
    },
    {
      "bufferView": 2,
      "byteOffset": 3552,
      "componentType": 5126,
      "count": 32,
      "max": [
        50,
        1,
        20
      ],
      "min": [
        -50,
        -1,
        0
      ],
      "type": "VEC3"
    },
    {
      "bufferView": 2,
      "byteOffset": 3936,
      "componentType": 5126,
      "count": 32,
      "max": [
        1,
        1,
        1
      ],
      "min": [
        -1,
        -1,
        -1
      ],
      "type": "VEC3"
    },
    {
      "bufferView": 1,
      "byteOffset": 1184,
      "componentType": 5126,
      "count": 32,
      "max": [
        0.94992059469223022,
        0.76288950443267822
      ],
      "min": [
        0.023330897092819214,
        0.13970676064491272
      ],
      "type": "VEC2"
    },
    {
      "bufferView": 0,
      "byteOffset": 2016,
      "componentType": 5125,
      "count": 72,
      "max": [
        31
      ],
      "min": [
        0
      ],
      "type": "SCALAR"
    },
    {
      "bufferView": 2,
      "byteOffset": 4320,
      "componentType": 5126,
      "count": 32,
      "max": [
        50,
        1,
        20
      ],
      "min": [
        -50,
        -1,
        0
      ],
      "type": "VEC3"
    },
    {
      "bufferView": 2,
      "byteOffset": 4704,
      "componentType": 5126,
      "count": 32,
      "max": [
        1,
        1,
        1
      ],
      "min": [
        -1,
        -1,
        -1
      ],
      "type": "VEC3"
    },
    {
      "bufferView": 1,
      "byteOffset": 1440,
      "componentType": 5126,
      "count": 32,
      "max": [
        0.94992059469223022,
        0.98547065258026123
      ],
      "min": [
        0.023330897092819214,
        0.39184221625328064
      ],
      "type": "VEC2"
    },
    {
      "bufferView": 0,
      "byteOffset": 2304,
      "componentType": 5125,
      "count": 72,
      "max": [
        31
      ],
      "min": [
        0
      ],
      "type": "SCALAR"
    },
    {
      "bufferView": 2,
      "byteOffset": 5088,
      "componentType": 5126,
      "count": 32,
      "max": [
        50,
        1,
        20
      ],
      "min": [
        -50,
        -1,
        0
      ],
      "type": "VEC3"
    },
    {
      "bufferView": 2,
      "byteOffset": 5472,
      "componentType": 5126,
      "count": 32,
      "max": [
        1,
        1,
        1
      ],
      "min": [
        -1,
        -1,
        -1
      ],
      "type": "VEC3"
    },
    {
      "bufferView": 1,
      "byteOffset": 1696,
      "componentType": 5126,
      "count": 32,
      "max": [
        0.94992059469223022,
        0.65456068515777588
      ],
      "min": [
        0.023330897092819214,
        0.26549750566482544
      ],
      "type": "VEC2"
    },
    {
      "bufferView": 0,
      "byteOffset": 2592,
      "componentType": 5125,
      "count": 72,
      "max": [
        31
      ],
      "min": [
        0
      ],
      "type": "SCALAR"
    },
    {
      "bufferView": 2,
      "byteOffset": 5856,
      "componentType": 5126,
      "count": 94,
      "max": [
        11.448655128479004,
        11.226688385009766,
        2.1605908870697021
      ],
      "min": [
        -9.9385223388671875,
        -11.226688385009766,
        0
      ],
      "type": "VEC3"
    },
    {
      "bufferView": 2,
      "byteOffset": 6984,
      "componentType": 5126,
      "count": 94,
      "max": [
        1,
        1,
        1
      ],
      "min": [
        -1,
        -1,
        -1
      ],
      "type": "VEC3"
    },
    {
      "bufferView": 1,
      "byteOffset": 1952,
      "componentType": 5126,
      "count": 94,
      "max": [
        0.08269190788269043,
        0.45858609676361084
      ],
      "min": [
        0.032691925764083862,
        0.40858608484268188
      ],
      "type": "VEC2"
    },
    {
      "bufferView": 0,
      "byteOffset": 2880,
      "componentType": 5125,
      "count": 144,
      "max": [
        93
      ],
      "min": [
        0
      ],
      "type": "SCALAR"
    },
    {
      "bufferView": 2,
      "byteOffset": 8112,
      "componentType": 5126,
      "count": 1366,
      "max": [
        10.017499923706055,
        3.2600002288818359,
        0.5
      ],
      "min": [
        -10.017499923706055,
        -0.055000003427267075,
        0
      ],
      "type": "VEC3"
    },
    {
      "bufferView": 2,
      "byteOffset": 24504,
      "componentType": 5126,
      "count": 1366,
      "max": [
        1,
        1,
        1
      ],
      "min": [
        -1,
        -1,
        -1
      ],
      "type": "VEC3"
    },
    {
      "bufferView": 1,
      "byteOffset": 2704,
      "componentType": 5126,
      "count": 1366,
      "max": [
        0.08269190788269043,
        0.48275655508041382
      ],
      "min": [
        0.032691925764083862,
        0.43275654315948486
      ],
      "type": "VEC2"
    },
    {
      "bufferView": 0,
      "byteOffset": 3456,
      "componentType": 5125,
      "count": 3732,
      "max": [
        1365
      ],
      "min": [
        0
      ],
      "type": "SCALAR"
    },
    {
      "bufferView": 3,
      "componentType": 5126,
      "count": 201,
      "max": [
        6.6666665077209473
      ],
      "min": [
        0
      ],
      "type": "SCALAR"
    },
    {
      "bufferView": 4,
      "componentType": 5126,
      "count": 201,
      "max": [
        -0.16563355922698975,
        -0.81910133361816406,
        110.07294464111328
      ],
      "min": [
        -0.16563355922698975,
        -0.81910133361816406,
        108.00240325927734
      ],
      "type": "VEC3"
    },
    {
      "bufferView": 3,
      "byteOffset": 804,
      "componentType": 5126,
      "count": 201,
      "max": [
        6.6666665077209473
      ],
      "min": [
        0
      ],
      "type": "SCALAR"
    },
    {
      "bufferView": 4,
      "byteOffset": 2412,
      "componentType": 5126,
      "count": 201,
      "max": [
        -0.16563355922698975,
        -0.81910133361816406,
        78.890815734863281
      ],
      "min": [
        -0.16563355922698975,
        -0.81910133361816406,
        72.014869689941406
      ],
      "type": "VEC3"
    },
    {
      "bufferView": 3,
      "byteOffset": 1608,
      "componentType": 5126,
      "count": 201,
      "max": [
        6.6666665077209473
      ],
      "min": [
        0
      ],
      "type": "SCALAR"
    },
    {
      "bufferView": 4,
      "byteOffset": 4824,
      "componentType": 5126,
      "count": 201,
      "max": [
        -0.16563355922698975,
        -0.81910133361816406,
        144.08447265625
      ],
      "min": [
        -0.16563355922698975,
        -0.81910133361816406,
        141.59765625
      ],
      "type": "VEC3"
    },
    {
      "bufferView": 3,
      "byteOffset": 2412,
      "componentType": 5126,
      "count": 201,
      "max": [
        6.6666665077209473
      ],
      "min": [
        0
      ],
      "type": "SCALAR"
    },
    {
      "bufferView": 4,
      "byteOffset": 7236,
      "componentType": 5126,
      "count": 201,
      "max": [
        -0.16563355922698975,
        -0.81910133361816406,
        38.419609069824219
      ],
      "min": [
        -0.16563355922698975,
        -0.81910133361816406,
        29.790618896484375
      ],
      "type": "VEC3"
    },
    {
      "bufferView": 3,
      "byteOffset": 3216,
      "componentType": 5126,
      "count": 201,
      "max": [
        6.6666665077209473
      ],
      "min": [
        0
      ],
      "type": "SCALAR"
    },
    {
      "bufferView": 4,
      "byteOffset": 9648,
      "componentType": 5126,
      "count": 201,
      "max": [
        0.52803897857666016,
        2.204963207244873,
        0.9941253662109375
      ],
      "min": [
        0.52803897857666016,
        -1.6670379638671875,
        0.9941253662109375
      ],
      "type": "VEC3"
    }
  ],
  "animations": [
    {
      "channels": [
        {
          "sampler": 0,
          "target": {
            "node": 7,
            "path": "translation"
          }
        },
        {
          "sampler": 1,
          "target": {
            "node": 10,
            "path": "translation"
          }
        },
        {
          "sampler": 2,
          "target": {
            "node": 13,
            "path": "translation"
          }
        },
        {
          "sampler": 3,
          "target": {
            "node": 16,
            "path": "translation"
          }
        },
        {
          "sampler": 4,
          "target": {
            "node": 19,
            "path": "translation"
          }
        }
      ],
      "name": "Totem_4",
      "samplers": [
        {
          "input": 28,
          "interpolation": "LINEAR",
          "output": 29
        },
        {
          "input": 30,
          "interpolation": "LINEAR",
          "output": 31
        },
        {
          "input": 32,
          "interpolation": "LINEAR",
          "output": 33
        },
        {
          "input": 34,
          "interpolation": "LINEAR",
          "output": 35
        },
        {
          "input": 36,
          "interpolation": "LINEAR",
          "output": 37
        }
      ]
    }
  ],
  "asset": {
    "extras": {
      "author": "m4ur1c10 (https://sketchfab.com/m4ur1c10)",
      "license": "CC-BY-4.0 (http://creativecommons.org/licenses/by/4.0/)",
      "source": "https://sketchfab.com/3d-models/9-6cf56db57c2b4eff9f138ba161ca51e5",
      "title": "9"
    },
    "generator": "Sketchfab-10.33.2",
    "version": "2.0"
  },
  "bufferViews": [
    {
      "buffer": 0,
      "byteLength": 18384,
      "byteOffset": 0,
      "name": "floatBufferViews",
      "target": 34963
    },
    {
      "buffer": 0,
      "byteLength": 13632,
      "byteOffset": 18384,
      "byteStride": 8,
      "name": "floatBufferViews",
      "target": 34962
    },
    {
      "buffer": 0,
      "byteLength": 40896,
      "byteOffset": 32016,
      "byteStride": 12,
      "name": "floatBufferViews",
      "target": 34962
    },
    {
      "buffer": 0,
      "byteLength": 4020,
      "byteOffset": 72912,
      "name": "floatBufferViews"
    },
    {
      "buffer": 0,
      "byteLength": 12060,
      "byteOffset": 76932,
      "byteStride": 12,
      "name": "floatBufferViews"
    }
  ],
  "buffers": [
    {
      "byteLength": 88992,
      "uri": "scene.bin"
    }
  ],
  "images": [
    {
      "uri": "textures/Totem_baseColor.jpeg"
    }
  ],
  "materials": [
    {
      "doubleSided": true,
      "name": "Totem",
      "pbrMetallicRoughness": {
        "baseColorFactor": [
          1,
          1,
          1,
          1
        ],
        "baseColorTexture": {
          "index": 0,
          "texCoord": 0
        },
        "metallicFactor": 0,
        "roughnessFactor": 0
      }
    }
  ],
  "meshes": [
    {
      "name": "Cylinder031_Totem_0",
      "primitives": [
        {
          "attributes": {
            "NORMAL": 1,
            "POSITION": 0,
            "TEXCOORD_0": 2
          },
          "indices": 3,
          "material": 0,
          "mode": 4
        }
      ]
    },
    {
      "name": "Aulas002_Totem_0",
      "primitives": [
        {
          "attributes": {
            "NORMAL": 5,
            "POSITION": 4,
            "TEXCOORD_0": 6
          },
          "indices": 7,
          "material": 0,
          "mode": 4
        }
      ]
    },
    {
      "name": "Aulas003_Totem_0",
      "primitives": [
        {
          "attributes": {
            "NORMAL": 9,
            "POSITION": 8,
            "TEXCOORD_0": 10
          },
          "indices": 11,
          "material": 0,
          "mode": 4
        }
      ]
    },
    {
      "name": "Aulas_Totem_0",
      "primitives": [
        {
          "attributes": {
            "NORMAL": 13,
            "POSITION": 12,
            "TEXCOORD_0": 14
          },
          "indices": 15,
          "material": 0,
          "mode": 4
        }
      ]
    },
    {
      "name": "Aulas004_Totem_0",
      "primitives": [
        {
          "attributes": {
            "NORMAL": 17,
            "POSITION": 16,
            "TEXCOORD_0": 18
          },
          "indices": 19,
          "material": 0,
          "mode": 4
        }
      ]
    },
    {
      "name": "Box231_Totem_0",
      "primitives": [
        {
          "attributes": {
            "NORMAL": 21,
            "POSITION": 20,
            "TEXCOORD_0": 22
          },
          "indices": 23,
          "material": 0,
          "mode": 4
        }
      ]
    },
    {
      "name": "Text001_Totem_0",
      "primitives": [
        {
          "attributes": {
            "NORMAL": 25,
            "POSITION": 24,
            "TEXCOORD_0": 26
          },
          "indices": 27,
          "material": 0,
          "mode": 4
        }
      ]
    }
  ],
  "nodes": [
    {
      "children": [
        1
      ],
      "name": "RootNode (gltf orientation matrix)",
      "rotation": [
        -0.70710678118654746,
        -0,
        -0,
        0.70710678118654757
      ]
    },
    {
      "children": [
        2
      ],
      "name": "RootNode (model correction matrix)"
    },
    {
      "children": [
        3
      ],
      "matrix": [
        1,
        0,
        0,
        0,
        0,
        0,
        1,
        0,
        0,
        -1,
        0,
        0,
        0,
        0,
        0,
        1
      ],
      "name": "1c9f3bfdda364f10bb3286370b4c052f.fbx"
    },
    {
      "children": [
        4
      ],
      "name": ""
    },
    {
      "children": [
        5,
        19,
        21
      ],
      "name": "RootNode"
    },
    {
      "children": [
        6,
        7,
        10,
        13,
        16
      ],
      "name": "Cylinder031",
      "rotation": [
        -0.5,
        -0.5,
        0.5,
        0.5
      ],
      "translation": [
        120.56524658203125,
        70.501296997070312,
        0
      ]
    },
    {
      "mesh": 0,
      "name": "Cylinder031_Totem_0"
    },
    {
      "children": [
        8
      ],
      "name": "Dummy003",
      "rotation": [
        1.8367099231598242e-40,
        3.3087224502121107e-24,
        -0,
        1
      ],
      "translation": [
        -0.1656341552734375,
        -0.81910133361816406,
        108.00240325927734
      ]
    },
    {
      "children": [
        9
      ],
      "name": "Aulas002",
      "rotation": [
        5.6606950981022865e-29,
        7.5245834445884921e-22,
        1,
        7.5497901264043321e-08
      ],
      "scale": [
        1,
        9.0054998397827148,
        1
      ],
      "translation": [
        -1.4210854715202004e-14,
        0,
        7.62939453125e-06
      ]
    },
    {
      "mesh": 1,
      "name": "Aulas002_Totem_0"
    },
    {
      "children": [
        11
      ],
      "name": "Dummy002",
      "rotation": [
        1.8367099231598242e-40,
        3.3087224502121107e-24,
        -0,
        1
      ],
      "translation": [
        -0.16562652587890625,
        -0.81910133361816406,
        72.014862060546875
      ]
    },
    {
      "children": [
        12
      ],
      "name": "Aulas003",
      "rotation": [
        1.8839798991693929e-24,
        3.9346630681214478e-24,
        0.13052602112293243,
        0.99144488573074341
      ],
      "scale": [
        1,
        9.0054998397827148,
        1
      ]
    },
    {
      "mesh": 2,
      "name": "Aulas003_Totem_0"
    },
    {
      "children": [
        14
      ],
      "name": "Dummy004",
      "rotation": [
        1.8367099231598242e-40,
        3.3087224502121107e-24,
        -0,
        1
      ],
      "translation": [
        -0.1656341552734375,
        -0.81910133361816406,
        141.59765625
      ]
    },
    {
      "children": [
        15
      ],
      "name": "Aulas",
      "rotation": [
        2.0783924998936219e-24,
        2.0783915138174904e-24,
        0.70710670948028564,
        0.7071068286895752
      ],
      "scale": [
        1,
        9.0054998397827148,
        1
      ],
      "translation": [
        0,
        0,
        -1.52587890625e-05
      ]
    },
    {
      "mesh": 3,
      "name": "Aulas_Totem_0"
    },
    {
      "children": [
        17
      ],
      "name": "Dummy001",
      "rotation": [
        1.8367099231598242e-40,
        3.3087224502121107e-24,
        -0,
        1
      ],
      "translation": [
        -0.16562652587890625,
        -0.81910133361816406,
        38.419609069824219
      ]
    },
    {
      "children": [
        18
      ],
      "name": "Aulas004",
      "rotation": [
        4.4418738089077809e-24,
        -5.3196282940945276e-25,
        0.9537169337272644,
        -0.30070590972900391
      ],
      "scale": [
        1,
        9.0054998397827148,
        1
      ],
      "translation": [
        0,
        0,
        7.62939453125e-06
      ]
    },
    {
      "mesh": 4,
      "name": "Aulas004_Totem_0"
    },
    {
      "children": [
        20
      ],
      "name": "Box231",
      "rotation": [
        -0.5,
        -0.5,
        0.5,
        0.5
      ],
      "scale": [
        0.57626897096633911,
        0.57626897096633911,
        0.57626897096633911
      ],
      "translation": [
        0.52803897857666016,
        -1.6670379638671875,
        0.9941253662109375
      ]
    },
    {
      "mesh": 5,
      "name": "Box231_Totem_0"
    },
    {
      "children": [
        22
      ],
      "name": "Text001",
      "rotation": [
        -0.5,
        0.5,
        0.5,
        0.5
      ],
      "translation": [
        -2.8579139709472656,
        -7.3434715270996094,
        1.8271141052246094
      ]
    },
    {
      "mesh": 6,
      "name": "Text001_Totem_0"
    }
  ],
  "samplers": [
    {
      "magFilter": 9729,
      "minFilter": 9987,
      "wrapS": 10497,
      "wrapT": 10497
    }
  ],
  "scene": 0,
  "scenes": [
    {
      "name": "OSG_Scene",
      "nodes": [
        0
      ]
    }
  ],
  "textures": [
    {
      "sampler": 0,
      "source": 0
    }
  ]
}

