{
  "accessors": [
    {
      "bufferView": 2,
      "componentType": 5126,
      "count": 32,
      "max": [
        50,
        1,
        20
      ],
      "min": [
        -50,
        -1,
        0
      ],
      "type": "VEC3"
    },
    {
      "bufferView": 2,
      "byteOffset": 384,
      "componentType": 5126,
      "count": 32,
      "max": [
        1,
        1,
        1
      ],
      "min": [
        -1,
        -1,
        -1
      ],
      "type": "VEC3"
    },
    {
      "bufferView": 1,
      "componentType": 5126,
      "count": 32,
      "max": [
        0.94992059469223022,
        0.65456068515777588
      ],
      "min": [
        0.023330897092819214,
        0.26549750566482544
      ],
      "type": "VEC2"
    },
    {
      "bufferView": 0,
      "componentType": 5125,
      "count": 72,
      "max": [
        31
      ],
      "min": [
        0
      ],
      "type": "SCALAR"
    },
    {
      "bufferView": 2,
      "byteOffset": 768,
      "componentType": 5126,
      "count": 32,
      "max": [
        50,
        1,
        20
      ],
      "min": [
        -50,
        -1,
        0
      ],
      "type": "VEC3"
    },
    {
      "bufferView": 2,
      "byteOffset": 1152,
      "componentType": 5126,
      "count": 32,
      "max": [
        1,
        1,
        1
      ],
      "min": [
        -1,
        -1,
        -1
      ],
      "type": "VEC3"
    },
    {
      "bufferView": 1,
      "byteOffset": 256,
      "componentType": 5126,
      "count": 32,
      "max": [
        0.94992059469223022,
        0.76288950443267822
      ],
      "min": [
        0.023330897092819214,
        0.13970676064491272
      ],
      "type": "VEC2"
    },
    {
      "bufferView": 0,
      "byteOffset": 288,
      "componentType": 5125,
      "count": 72,
      "max": [
        31
      ],
      "min": [
        0
      ],
      "type": "SCALAR"
    },
    {
      "bufferView": 2,
      "byteOffset": 1536,
      "componentType": 5126,
      "count": 32,
      "max": [
        50,
        1,
        20
      ],
      "min": [
        -50,
        -1,
        0
      ],
      "type": "VEC3"
    },
    {
      "bufferView": 2,
      "byteOffset": 1920,
      "componentType": 5126,
      "count": 32,
      "max": [
        1,
        1,
        1
      ],
      "min": [
        -1,
        -1,
        -1
      ],
      "type": "VEC3"
    },
    {
      "bufferView": 1,
      "byteOffset": 512,
      "componentType": 5126,
      "count": 32,
      "max": [
        0.94992059469223022,
        0.98547065258026123
      ],
      "min": [
        0.023330897092819214,
        0.39184221625328064
      ],
      "type": "VEC2"
    },
    {
      "bufferView": 0,
      "byteOffset": 576,
      "componentType": 5125,
      "count": 72,
      "max": [
        31
      ],
      "min": [
        0
      ],
      "type": "SCALAR"
    },
    {
      "bufferView": 2,
      "byteOffset": 2304,
      "componentType": 5126,
      "count": 32,
      "max": [
        50,
        1,
        20
      ],
      "min": [
        -50,
        -1,
        0
      ],
      "type": "VEC3"
    },
    {
      "bufferView": 2,
      "byteOffset": 2688,
      "componentType": 5126,
      "count": 32,
      "max": [
        1,
        1,
        1
      ],
      "min": [
        -1,
        -1,
        -1
      ],
      "type": "VEC3"
    },
    {
      "bufferView": 1,
      "byteOffset": 768,
      "componentType": 5126,
      "count": 32,
      "max": [
        0.94992059469223022,
        0.87695080041885376
      ],
      "min": [
        0.023330897092819214,
        0.012438476085662842
      ],
      "type": "VEC2"
    },
    {
      "bufferView": 0,
      "byteOffset": 864,
      "componentType": 5125,
      "count": 72,
      "max": [
        31
      ],
      "min": [
        0
      ],
      "type": "SCALAR"
    },
    {
      "bufferView": 2,
      "byteOffset": 3072,
      "componentType": 5126,
      "count": 116,
      "max": [
        17.630844116210938,
        17.362993240356445,
        1.5970426797866821
      ],
      "min": [
        -17.630844116210938,
        -17.362993240356445,
        0
      ],
      "type": "VEC3"
    },
    {
      "bufferView": 2,
      "byteOffset": 4464,
      "componentType": 5126,
      "count": 116,
      "max": [
        1,
        0.98480784893035889,
        1
      ],
      "min": [
        -1,
        -0.98480790853500366,
        -1
      ],
      "type": "VEC3"
    },
    {
      "bufferView": 1,
      "byteOffset": 1024,
      "componentType": 5126,
      "count": 116,
      "max": [
        0.081516921520233154,
        0.46174490451812744
      ],
      "min": [
        0.051516950130462646,
        0.43174493312835693
      ],
      "type": "VEC2"
    },
    {
      "bufferView": 0,
      "byteOffset": 1152,
      "componentType": 5125,
      "count": 432,
      "max": [
        115
      ],
      "min": [
        0
      ],
      "type": "SCALAR"
    },
    {
      "bufferView": 3,
      "componentType": 5126,
      "count": 201,
      "max": [
        6.6666665077209473
      ],
      "min": [
        0
      ],
      "type": "SCALAR"
    },
    {
      "bufferView": 4,
      "componentType": 5126,
      "count": 201,
      "max": [
        -0.16563355922698975,
        38.419609069824219,
        0.81910133361816406
      ],
      "min": [
        -0.16563355922698975,
        29.790618896484375,
        0.81910133361816406
      ],
      "type": "VEC3"
    },
    {
      "bufferView": 3,
      "byteOffset": 804,
      "componentType": 5126,
      "count": 201,
      "max": [
        6.6666665077209473
      ],
      "min": [
        0
      ],
      "type": "SCALAR"
    },
    {
      "bufferView": 4,
      "byteOffset": 2412,
      "componentType": 5126,
      "count": 201,
      "max": [
        -0.16563355922698975,
        78.890815734863281,
        0.81910133361816406
      ],
      "min": [
        -0.16563355922698975,
        72.014869689941406,
        0.81910133361816406
      ],
      "type": "VEC3"
    },
    {
      "bufferView": 3,
      "byteOffset": 1608,
      "componentType": 5126,
      "count": 201,
      "max": [
        6.6666665077209473
      ],
      "min": [
        0
      ],
      "type": "SCALAR"
    },
    {
      "bufferView": 4,
      "byteOffset": 4824,
      "componentType": 5126,
      "count": 201,
      "max": [
        -0.16563355922698975,
        144.08447265625,
        0.81910133361816406
      ],
      "min": [
        -0.16563355922698975,
        141.59765625,
        0.81910133361816406
      ],
      "type": "VEC3"
    },
    {
      "bufferView": 3,
      "byteOffset": 2412,
      "componentType": 5126,
      "count": 201,
      "max": [
        6.6666665077209473
      ],
      "min": [
        0
      ],
      "type": "SCALAR"
    },
    {
      "bufferView": 4,
      "byteOffset": 7236,
      "componentType": 5126,
      "count": 201,
      "max": [
        -0.16563355922698975,
        110.07294464111328,
        0.81910133361816406
      ],
      "min": [
        -0.16563355922698975,
        108.00240325927734,
        0.81910133361816406
      ],
      "type": "VEC3"
    }
  ],
  "animations": [
    {
      "channels": [
        {
          "sampler": 0,
          "target": {
            "node": 5,
            "path": "translation"
          }
        },
        {
          "sampler": 1,
          "target": {
            "node": 8,
            "path": "translation"
          }
        },
        {
          "sampler": 2,
          "target": {
            "node": 11,
            "path": "translation"
          }
        },
        {
          "sampler": 3,
          "target": {
            "node": 14,
            "path": "translation"
          }
        }
      ],
      "name": "Totem_3",
      "samplers": [
        {
          "input": 20,
          "interpolation": "LINEAR",
          "output": 21
        },
        {
          "input": 22,
          "interpolation": "LINEAR",
          "output": 23
        },
        {
          "input": 24,
          "interpolation": "LINEAR",
          "output": 25
        },
        {
          "input": 26,
          "interpolation": "LINEAR",
          "output": 27
        }
      ]
    }
  ],
  "asset": {
    "extras": {
      "author": "m4ur1c10 (https://sketchfab.com/m4ur1c10)",
      "license": "CC-BY-4.0 (http://creativecommons.org/licenses/by/4.0/)",
      "source": "https://sketchfab.com/3d-models/9-6cf56db57c2b4eff9f138ba161ca51e5",
      "title": "9"
    },
    "generator": "Sketchfab-10.31.0",
    "version": "2.0"
  },
  "bufferViews": [
    {
      "buffer": 0,
      "byteLength": 2880,
      "byteOffset": 0,
      "name": "floatBufferViews",
      "target": 34963
    },
    {
      "buffer": 0,
      "byteLength": 1952,
      "byteOffset": 2880,
      "byteStride": 8,
      "name": "floatBufferViews",
      "target": 34962
    },
    {
      "buffer": 0,
      "byteLength": 5856,
      "byteOffset": 4832,
      "byteStride": 12,
      "name": "floatBufferViews",
      "target": 34962
    },
    {
      "buffer": 0,
      "byteLength": 3216,
      "byteOffset": 10688,
      "name": "floatBufferViews"
    },
    {
      "buffer": 0,
      "byteLength": 9648,
      "byteOffset": 13904,
      "byteStride": 12,
      "name": "floatBufferViews"
    }
  ],
  "buffers": [
    {
      "byteLength": 23552,
      "uri": "scene.bin"
    }
  ],
  "images": [
    {
      "uri": "textures/Totem_baseColor.jpeg"
    }
  ],
  "materials": [
    {
      "doubleSided": true,
      "name": "Totem",
      "pbrMetallicRoughness": {
        "baseColorFactor": [
          1,
          1,
          1,
          1
        ],
        "baseColorTexture": {
          "index": 0,
          "texCoord": 0
        },
        "metallicFactor": 0,
        "roughnessFactor": 0
      }
    }
  ],
  "meshes": [
    {
      "name": "Aulas004_Totem_0",
      "primitives": [
        {
          "attributes": {
            "NORMAL": 1,
            "POSITION": 0,
            "TEXCOORD_0": 2
          },
          "indices": 3,
          "material": 0,
          "mode": 4
        }
      ]
    },
    {
      "name": "Aulas003_Totem_0",
      "primitives": [
        {
          "attributes": {
            "NORMAL": 5,
            "POSITION": 4,
            "TEXCOORD_0": 6
          },
          "indices": 7,
          "material": 0,
          "mode": 4
        }
      ]
    },
    {
      "name": "Aulas_Totem_0",
      "primitives": [
        {
          "attributes": {
            "NORMAL": 9,
            "POSITION": 8,
            "TEXCOORD_0": 10
          },
          "indices": 11,
          "material": 0,
          "mode": 4
        }
      ]
    },
    {
      "name": "Aulas002_Totem_0",
      "primitives": [
        {
          "attributes": {
            "NORMAL": 13,
            "POSITION": 12,
            "TEXCOORD_0": 14
          },
          "indices": 15,
          "material": 0,
          "mode": 4
        }
      ]
    },
    {
      "name": "Cylinder031_Totem_0",
      "primitives": [
        {
          "attributes": {
            "NORMAL": 17,
            "POSITION": 16,
            "TEXCOORD_0": 18
          },
          "indices": 19,
          "material": 0,
          "mode": 4
        }
      ]
    }
  ],
  "nodes": [
    {
      "children": [
        1
      ],
      "name": "RootNode (gltf orientation matrix)",
      "rotation": [
        -0.70710678118654746,
        -0,
        -0,
        0.70710678118654757
      ]
    },
    {
      "children": [
        2
      ],
      "matrix": [
        0.012432539835572243,
        0,
        0,
        0,
        0,
        0.012432539835572243,
        0,
        0,
        0,
        0,
        0.012432539835572243,
        0,
        0,
        0,
        0,
        1
      ],
      "name": "RootNode (model correction matrix)"
    },
    {
      "children": [
        3
      ],
      "matrix": [
        1,
        0,
        0,
        0,
        0,
        0,
        1,
        0,
        0,
        -1,
        0,
        0,
        0,
        0,
        0,
        1
      ],
      "name": "d8a5a3acaea748919578574c322f4e80.fbx"
    },
    {
      "children": [
        4
      ],
      "name": ""
    },
    {
      "children": [
        5,
        8,
        11,
        14,
        17
      ],
      "name": "RootNode"
    },
    {
      "children": [
        6
      ],
      "name": "Dummy001",
      "rotation": [
        -0.7071068286895752,
        -0,
        0,
        0.7071068286895752
      ],
      "translation": [
        -0.16563355922698975,
        38.419609069824219,
        0.81910133361816406
      ]
    },
    {
      "children": [
        7
      ],
      "name": "Aulas004",
      "rotation": [
        0,
        0,
        0.9537169337272644,
        -0.30070579051971436
      ],
      "scale": [
        1,
        9.0054998397827148,
        1
      ]
    },
    {
      "mesh": 0,
      "name": "Aulas004_Totem_0"
    },
    {
      "children": [
        9
      ],
      "name": "Dummy002",
      "rotation": [
        -0.7071068286895752,
        -0,
        0,
        0.7071068286895752
      ],
      "translation": [
        -0.16563355922698975,
        72.014869689941406,
        0.81910133361816406
      ]
    },
    {
      "children": [
        10
      ],
      "name": "Aulas003",
      "rotation": [
        0,
        0,
        0.13052602112293243,
        0.99144488573074341
      ],
      "scale": [
        1,
        9.0054998397827148,
        1
      ]
    },
    {
      "mesh": 1,
      "name": "Aulas003_Totem_0"
    },
    {
      "children": [
        12
      ],
      "name": "Dummy004",
      "rotation": [
        -0.7071068286895752,
        -0,
        0,
        0.7071068286895752
      ],
      "translation": [
        -0.16563355922698975,
        141.59765625,
        0.81910133361816406
      ]
    },
    {
      "children": [
        13
      ],
      "name": "Aulas",
      "rotation": [
        0,
        0,
        0.70710670948028564,
        0.7071068286895752
      ],
      "scale": [
        1,
        9.0054998397827148,
        1
      ]
    },
    {
      "mesh": 2,
      "name": "Aulas_Totem_0"
    },
    {
      "children": [
        15
      ],
      "name": "Dummy003",
      "rotation": [
        -0.7071068286895752,
        -0,
        0,
        0.7071068286895752
      ],
      "translation": [
        -0.16563355922698975,
        108.00240325927734,
        0.81910133361816406
      ]
    },
    {
      "children": [
        16
      ],
      "name": "Aulas002",
      "rotation": [
        4.1333960672342697e-40,
        5.474855020721219e-33,
        1,
        7.5497901264043321e-08
      ],
      "scale": [
        1,
        9.0054998397827148,
        1
      ],
      "translation": [
        0,
        0,
        7.62939453125e-06
      ]
    },
    {
      "mesh": 3,
      "name": "Aulas002_Totem_0"
    },
    {
      "children": [
        18
      ],
      "name": "Cylinder031",
      "rotation": [
        -0.7071068286895752,
        -0,
        0,
        0.7071068286895752
      ]
    },
    {
      "mesh": 4,
      "name": "Cylinder031_Totem_0"
    }
  ],
  "samplers": [
    {
      "magFilter": 9729,
      "minFilter": 9987,
      "wrapS": 10497,
      "wrapT": 10497
    }
  ],
  "scene": 0,
  "scenes": [
    {
      "name": "OSG_Scene",
      "nodes": [
        0
      ]
    }
  ],
  "textures": [
    {
      "sampler": 0,
      "source": 0
    }
  ]
}

